<svg xmlns="http://www.w3.org/2000/svg" x="0px" y="0px" width="100" height="100" viewBox="0 0 48 48">
<polygon fill="#0277bd" points="5.919,33.683 23.961,23.452 42.003,33.683 23.961,43.909"></polygon><polygon fill="#ffd600" points="14.938,10.111 5.919,15.222 14.942,20.337 23.961,15.222"></polygon><polygon fill="#ff8f00" points="23.957,4.996 14.942,10.107 23.961,15.222 32.98,10.111"></polygon><polygon fill="#e53935" points="32.98,10.111 23.961,15.222 32.98,20.337 41.999,15.222"></polygon><path d="M23.955,44.2c-0.026,0-0.053-0.002-0.08-0.006c-2.312-0.373-8.694-4.19-13.821-7.258c-1.74-1.041-3.242-1.939-4.315-2.54 c-0.236-0.132-0.324-0.428-0.199-0.668c0.476-0.91,3.696-2.754,9.474-5.839l0.277-0.148c0.539-0.288,1.25-0.745,2.003-1.228 c2.228-1.429,5.003-3.217,6.896-3.044c2.105,0.182,4.471,1.742,6.557,3.118c1.02,0.672,1.982,1.307,2.818,1.722 c0.082,0.041,8.298,4.286,8.839,5.438c0.059,0.125,0.063,0.268,0.013,0.396c-0.051,0.128-0.151,0.23-0.28,0.281 c-4.186,1.667-10.158,5.213-14.111,7.56c-2.703,1.605-3.607,2.131-3.967,2.206C24.023,44.196,23.989,44.2,23.955,44.2z M6.771,33.831c1.022,0.587,2.325,1.366,3.797,2.246c4.704,2.814,11.117,6.651,13.353,7.108c0.422-0.178,1.966-1.095,3.595-2.062 c3.765-2.235,9.35-5.551,13.547-7.338c-1.527-1.128-6.396-3.812-7.942-4.581c-0.89-0.442-1.878-1.094-2.923-1.783 c-1.987-1.31-4.24-2.795-6.093-2.956c-1.586-0.136-4.281,1.614-6.271,2.89c-0.77,0.494-1.498,0.961-2.072,1.268l-0.277,0.148 C13.191,29.995,8.17,32.676,6.771,33.831z"></path><path d="M33.048,21.25c-0.077,0-0.154-0.018-0.227-0.054c-1.484-0.753-2.979-1.758-4.181-2.566 c-0.452-0.304-0.962-0.577-1.501-0.865c-0.783-0.418-1.593-0.85-2.257-1.408c-0.797-0.672-0.914-0.618-2.036-0.104l-0.175,0.08 c-2.424,1.103-4.675,2.518-6.689,4.207c-0.269,0.225-1.017,0.306-1.315,0.143c-2.829-1.544-5.615-3.17-8.702-4.983 c-0.221-0.129-0.309-0.405-0.202-0.638c0.198-0.437,1.427-1.179,8.214-4.966c3.324-1.854,7.092-3.956,9.954-5.683 c0.208-0.123,0.47-0.084,0.632,0.095c0.829,0.927,3.779,2.452,5.731,3.461c1.188,0.615,2.048,1.059,2.401,1.325 c2.919,2.201,6.116,4.017,9.502,5.399c0.18,0.073,0.301,0.243,0.311,0.436c0.011,0.193-0.091,0.375-0.261,0.467 c-3.237,1.75-5.988,3.364-8.898,5.555C33.26,21.216,33.154,21.25,33.048,21.25z M23.973,14.863c0.469,0,0.932,0.205,1.555,0.729 c0.583,0.49,1.346,0.897,2.083,1.291c0.538,0.288,1.095,0.584,1.589,0.917c1.103,0.742,2.458,1.653,3.8,2.362 c2.589-1.926,5.061-3.412,7.859-4.95c-3.11-1.358-6.055-3.078-8.765-5.121c-0.286-0.216-1.245-0.711-2.26-1.236 c-2.055-1.062-4.566-2.361-5.719-3.388c-2.831,1.696-6.447,3.713-9.651,5.5c-3.05,1.702-6.187,3.451-7.372,4.232 c2.812,1.65,5.388,3.146,7.993,4.57c0.094-0.005,0.265-0.02,0.325-0.043c2.014-1.701,4.342-3.165,6.848-4.305l0.172-0.079 C23.052,15.059,23.515,14.863,23.973,14.863z"></path><path d="M24.126,15.803c-0.082,0-0.164-0.02-0.238-0.061c-0.664-0.36-1.114-0.698-1.477-0.97c-0.217-0.163-0.407-0.308-0.61-0.426 l-0.885-0.521c-1.802-1.063-4.816-2.843-5.822-3.152c-0.265-0.081-0.412-0.361-0.331-0.625c0.08-0.264,0.359-0.413,0.624-0.331 c1.119,0.344,4.079,2.091,6.037,3.247l0.881,0.518c0.234,0.137,0.456,0.302,0.707,0.49c0.296,0.222,0.624,0.468,1.075,0.733 c2.635-1.973,5.484-3.669,8.475-5.044c0.248-0.116,0.548-0.006,0.663,0.245s0.006,0.548-0.245,0.663 c-3.024,1.391-5.901,3.117-8.551,5.131C24.34,15.769,24.233,15.803,24.126,15.803z"></path>
</svg>